# Blender v2.83.9 OBJ File: ''
# www.blender.org
mtllib draconis_egg.mtl
o cube.000
v -0.156250 -0.437500 0.155000
v 0.156250 -0.437500 0.155000
v 0.156250 -0.437500 -0.157500
v -0.156250 -0.437500 -0.157500
v -0.156250 0.062500 0.155000
v 0.156250 0.062500 0.155000
v 0.156250 0.062500 -0.157500
v -0.156250 0.062500 -0.157500
v -0.156250 -0.500000 0.155000
v 0.156250 -0.500000 0.155000
v 0.156250 -0.437500 0.155000
v -0.156250 -0.437500 0.155000
v 0.125000 0.062500 0.123750
v 0.125000 0.062500 -0.126250
v 0.125000 0.125000 -0.126250
v 0.125000 0.125000 0.123750
v 0.156250 -0.000000 0.155000
v 0.156250 0.000000 -0.157500
v 0.156250 0.062500 -0.157500
v 0.156250 0.062500 0.155000
v -0.156250 -0.000000 0.155000
v 0.156250 -0.000000 0.155000
v 0.156250 0.062500 0.155000
v -0.156250 0.062500 0.155000
v -0.187500 -0.000000 0.186250
v 0.187500 -0.000000 0.186250
v 0.187500 0.000000 -0.188750
v -0.187500 0.000000 -0.188750
v 0.156250 -0.500000 -0.157500
v -0.156250 -0.500000 -0.157500
v -0.156250 -0.437500 -0.157500
v 0.156250 -0.437500 -0.157500
v 0.187500 -0.437500 0.186250
v 0.187500 -0.437500 -0.188750
v 0.187500 0.000000 -0.188750
v 0.187500 -0.000000 0.186250
v -0.125000 0.125000 0.123750
v 0.125000 0.125000 0.123750
v 0.125000 0.125000 -0.126250
v -0.125000 0.125000 -0.126250
v -0.187500 -0.437500 0.186250
v 0.187500 -0.437500 0.186250
v 0.187500 -0.000000 0.186250
v -0.187500 -0.000000 0.186250
v -0.187500 -0.437500 -0.188750
v 0.187500 -0.437500 -0.188750
v 0.187500 -0.437500 0.186250
v -0.187500 -0.437500 0.186250
v 0.156250 0.000000 -0.157500
v -0.156250 0.000000 -0.157500
v -0.156250 0.062500 -0.157500
v 0.156250 0.062500 -0.157500
v -0.156250 0.000000 -0.157500
v -0.156250 -0.000000 0.155000
v -0.156250 0.062500 0.155000
v -0.156250 0.062500 -0.157500
v -0.156250 -0.500000 -0.157500
v -0.156250 -0.500000 0.155000
v -0.156250 -0.437500 0.155000
v -0.156250 -0.437500 -0.157500
v -0.187500 -0.437500 -0.188750
v -0.187500 -0.437500 0.186250
v -0.187500 -0.000000 0.186250
v -0.187500 0.000000 -0.188750
v 0.156250 -0.500000 0.155000
v 0.156250 -0.500000 -0.157500
v 0.156250 -0.437500 -0.157500
v 0.156250 -0.437500 0.155000
v -0.156250 0.000000 -0.157500
v 0.156250 0.000000 -0.157500
v 0.156250 -0.000000 0.155000
v -0.156250 -0.000000 0.155000
v 0.187500 -0.437500 -0.188750
v -0.187500 -0.437500 -0.188750
v -0.187500 0.000000 -0.188750
v 0.187500 0.000000 -0.188750
v -0.156250 -0.500000 -0.157500
v 0.156250 -0.500000 -0.157500
v 0.156250 -0.500000 0.155000
v -0.156250 -0.500000 0.155000
v -0.125000 0.062500 -0.126250
v -0.125000 0.062500 0.123750
v -0.125000 0.125000 0.123750
v -0.125000 0.125000 -0.126250
v -0.125000 0.062500 -0.126250
v 0.125000 0.062500 -0.126250
v 0.125000 0.062500 0.123750
v -0.125000 0.062500 0.123750
v -0.125000 0.062500 0.123750
v 0.125000 0.062500 0.123750
v 0.125000 0.125000 0.123750
v -0.125000 0.125000 0.123750
v 0.125000 0.062500 -0.126250
v -0.125000 0.062500 -0.126250
v -0.125000 0.125000 -0.126250
v 0.125000 0.125000 -0.126250
vt 0.218913 0.031087
vt 0.374512 0.187012
vt 0.219238 0.187012
vt 0.374837 0.031087
vt 0.218913 0.624837
vt 0.374512 0.780762
vt 0.219238 0.780762
vt 0.374837 0.624837
vt 0.687012 0.030762
vt 0.531250 0.000488
vt 0.687012 0.000488
vt 0.531250 0.030762
vt 0.250163 0.812337
vt 0.125488 0.781738
vt 0.250000 0.781738
vt 0.125488 0.812012
vt 0.218913 0.624837
vt 0.062988 0.594238
vt 0.218750 0.594238
vt 0.062988 0.624512
vt 0.687012 0.624512
vt 0.531250 0.594238
vt 0.687012 0.594238
vt 0.531250 0.624512
vt 0.187663 0.406087
vt 0.374512 0.593262
vt 0.187988 0.593262
vt 0.374837 0.406087
vt 0.374837 0.031087
vt 0.218750 0.000488
vt 0.375000 0.000488
vt 0.218913 0.031087
vt 0.187663 0.406087
vt 0.000488 0.187988
vt 0.187500 0.187988
vt 0.000488 0.405762
vt 0.250163 0.812337
vt 0.374512 0.937012
vt 0.250488 0.937012
vt 0.374837 0.812337
vt 0.749512 0.405762
vt 0.562500 0.187988
vt 0.749512 0.187988
vt 0.562500 0.405762
vt 0.375488 0.593262
vt 0.562012 0.406738
vt 0.375488 0.406738
vt 0.562012 0.593262
vt 0.374837 0.624837
vt 0.218750 0.594238
vt 0.375000 0.594238
vt 0.218913 0.624837
vt 0.531250 0.624512
vt 0.375000 0.594238
vt 0.531250 0.594238
vt 0.374837 0.624837
vt 0.531250 0.030762
vt 0.375000 0.000488
vt 0.531250 0.000488
vt 0.374837 0.031087
vt 0.562500 0.405762
vt 0.375000 0.187988
vt 0.562500 0.187988
vt 0.374837 0.406087
vt 0.218913 0.031087
vt 0.062988 0.000488
vt 0.218750 0.000488
vt 0.062988 0.030762
vt 0.375488 0.780762
vt 0.530762 0.625488
vt 0.375488 0.625488
vt 0.530762 0.780762
vt 0.374837 0.406087
vt 0.187500 0.187988
vt 0.375000 0.187988
vt 0.187663 0.406087
vt 0.375488 0.187012
vt 0.530762 0.031738
vt 0.375488 0.031738
vt 0.530762 0.187012
vt 0.500000 0.812012
vt 0.375000 0.781738
vt 0.500000 0.781738
vt 0.374837 0.812337
vt 0.375488 0.937012
vt 0.499512 0.812988
vt 0.375488 0.812988
vt 0.499512 0.937012
vt 0.624512 0.812012
vt 0.500000 0.781738
vt 0.624512 0.781738
vt 0.500000 0.812012
vt 0.374837 0.812337
vt 0.250000 0.781738
vt 0.375000 0.781738
vt 0.250163 0.812337
vn 0.0000 1.0000 0.0000
vn 0.0000 -0.0000 1.0000
vn 1.0000 0.0000 0.0000
vn 0.0000 0.0000 -1.0000
vn 0.0000 -1.0000 -0.0000
vn -1.0000 0.0000 0.0000
usemtl m_0
s off
f 3/1/1 1/2/1 2/3/1
f 4/4/1 1/2/1 3/1/1
f 7/5/1 5/6/1 6/7/1
f 8/8/1 5/6/1 7/5/1
f 11/9/2 9/10/2 10/11/2
f 12/12/2 9/10/2 11/9/2
f 15/13/3 13/14/3 14/15/3
f 16/16/3 13/14/3 15/13/3
f 19/17/3 17/18/3 18/19/3
f 20/20/3 17/18/3 19/17/3
f 23/21/2 21/22/2 22/23/2
f 24/24/2 21/22/2 23/21/2
f 27/25/1 25/26/1 26/27/1
f 28/28/1 25/26/1 27/25/1
f 31/29/4 29/30/4 30/31/4
f 32/32/4 29/30/4 31/29/4
f 35/33/3 33/34/3 34/35/3
f 36/36/3 33/34/3 35/33/3
f 39/37/1 37/38/1 38/39/1
f 40/40/1 37/38/1 39/37/1
f 43/41/2 41/42/2 42/43/2
f 44/44/2 41/42/2 43/41/2
f 47/45/5 45/46/5 46/47/5
f 48/48/5 45/46/5 47/45/5
f 51/49/4 49/50/4 50/51/4
f 52/52/4 49/50/4 51/49/4
f 55/53/6 53/54/6 54/55/6
f 56/56/6 53/54/6 55/53/6
f 59/57/6 57/58/6 58/59/6
f 60/60/6 57/58/6 59/57/6
f 63/61/6 61/62/6 62/63/6
f 64/64/6 61/62/6 63/61/6
f 67/65/3 65/66/3 66/67/3
f 68/68/3 65/66/3 67/65/3
f 71/69/5 69/70/5 70/71/5
f 72/72/5 69/70/5 71/69/5
f 75/73/4 73/74/4 74/75/4
f 76/76/4 73/74/4 75/73/4
f 79/77/5 77/78/5 78/79/5
f 80/80/5 77/78/5 79/77/5
f 83/81/6 81/82/6 82/83/6
f 84/84/6 81/82/6 83/81/6
f 87/85/5 85/86/5 86/87/5
f 88/88/5 85/86/5 87/85/5
f 91/89/2 89/90/2 90/91/2
f 92/92/2 89/90/2 91/89/2
f 95/93/4 93/94/4 94/95/4
f 96/96/4 93/94/4 95/93/4
