# Blender v2.82 (sub 7) OBJ File: ''
# www.blender.org
mtllib draconis_lectern.mtl
o cube
v 0.437500 -0.250000 0.437500
v 0.437500 -0.500000 0.437500
v 0.437500 -0.250000 -0.437500
v 0.437500 -0.500000 -0.437500
v -0.437500 -0.250000 -0.437500
v -0.437500 -0.500000 -0.437500
v -0.437500 -0.250000 0.437500
v -0.437500 -0.500000 0.437500
v 0.187500 0.375000 0.187500
v 0.187500 -0.250000 0.187500
v 0.187500 0.375000 -0.187500
v 0.187500 -0.250000 -0.187500
v -0.187500 0.375000 -0.187500
v -0.187500 -0.250000 -0.187500
v -0.187500 0.375000 0.187500
v -0.187500 -0.250000 0.187500
v 0.437500 0.765211 0.357675
v 0.437500 0.471557 0.464556
v 0.437500 0.465943 -0.464556
v 0.437500 0.172289 -0.357675
v -0.437500 0.465943 -0.464556
v -0.437500 0.172289 -0.357675
v -0.437500 0.765211 0.357675
v -0.437500 0.471557 0.464556
v 0.375000 0.647534 -0.331116
v 0.375000 0.530072 -0.288364
v 0.375000 0.604781 -0.448578
v 0.375000 0.487319 -0.405825
v -0.375000 0.604781 -0.448578
v -0.375000 0.487319 -0.405825
v -0.375000 0.647534 -0.331116
v -0.375000 0.530072 -0.288364
vt 0.187256 0.421631
vt 0.093994 0.421631
vt 0.093994 0.328369
vt 0.187256 0.328369
vt 0.656006 0.781494
vt 0.437744 0.781494
vt 0.437744 0.999756
vt 0.656006 0.999756
vt 0.437744 0.703369
vt 0.656006 0.703369
vt 0.656006 0.781006
vt 0.437744 0.781006
vt 0.281006 0.328369
vt 0.187744 0.328369
vt 0.187744 0.421631
vt 0.281006 0.421631
vt 0.656494 0.703369
vt 0.874756 0.703369
vt 0.874756 0.781006
vt 0.656494 0.781006
vt 0.281494 0.172119
vt 0.374756 0.172119
vt 0.374756 0.327881
vt 0.281494 0.327881
vt 0.281494 0.359619
vt 0.312256 0.359619
vt 0.312256 0.390381
vt 0.281494 0.390381
vt 0.500244 0.359619
vt 0.531006 0.359619
vt 0.531006 0.390381
vt 0.500244 0.390381
vt 0.093994 0.172119
vt 0.187256 0.172119
vt 0.187256 0.327881
vt 0.093994 0.327881
vt 0.000244 0.422119
vt 0.218506 0.422119
vt 0.218506 0.484131
vt 0.000244 0.484131
vt 0.656006 0.484619
vt 0.437744 0.484619
vt 0.437744 0.702881
vt 0.656006 0.702881
vt 0.656494 0.422119
vt 0.874756 0.422119
vt 0.874756 0.484131
vt 0.656494 0.484131
vt 0.218994 0.422119
vt 0.437256 0.422119
vt 0.437256 0.484131
vt 0.218994 0.484131
vt 0.187744 0.172119
vt 0.281006 0.172119
vt 0.281006 0.327881
vt 0.187744 0.327881
vt 0.687256 0.390869
vt 0.500244 0.390869
vt 0.500244 0.421631
vt 0.687256 0.421631
vt 0.531494 0.359619
vt 0.718506 0.359619
vt 0.718506 0.390381
vt 0.531494 0.390381
vt 0.437256 0.702881
vt 0.218994 0.702881
vt 0.218994 0.484619
vt 0.437256 0.484619
vt 0.437256 0.999756
vt 0.218994 0.999756
vt 0.218994 0.781494
vt 0.437256 0.781494
vt 0.437744 0.422119
vt 0.656006 0.422119
vt 0.656006 0.484131
vt 0.437744 0.484131
vt 0.000244 0.172119
vt 0.093506 0.172119
vt 0.093506 0.327881
vt 0.000244 0.327881
vt 0.000244 0.703369
vt 0.218506 0.703369
vt 0.218506 0.781006
vt 0.000244 0.781006
vt 0.499756 0.421631
vt 0.312744 0.421631
vt 0.312744 0.390869
vt 0.499756 0.390869
vt 0.312744 0.359619
vt 0.499756 0.359619
vt 0.499756 0.390381
vt 0.312744 0.390381
vt 0.218994 0.703369
vt 0.437256 0.703369
vt 0.437256 0.781006
vt 0.218994 0.781006
vn 0.0000 1.0000 0.0000
vn 0.0000 -0.9397 0.3420
vn -1.0000 0.0000 0.0000
vn 0.0000 -1.0000 -0.0000
vn 0.0000 0.3420 0.9397
vn 0.0000 -0.0000 1.0000
vn 1.0000 0.0000 0.0000
vn 0.0000 0.0000 -1.0000
vn 0.0000 0.9397 -0.3420
vn 0.0000 -0.3420 -0.9397
usemtl 1
s 1
f 15/1/1 9/2/1 11/3/1 13/4/1
f 22/5/2 20/6/2 18/7/2 24/8/2
f 22/9/3 24/10/3 23/11/3 21/12/3
f 14/13/4 12/14/4 10/15/4 16/16/4
f 24/17/5 18/18/5 17/19/5 23/20/5
f 16/21/6 10/22/6 9/23/6 15/24/6
f 26/25/7 28/26/7 27/27/7 25/28/7
f 30/29/3 32/30/3 31/31/3 29/32/3
f 12/33/8 14/34/8 13/35/8 11/36/8
f 2/37/7 4/38/7 3/39/7 1/40/7
f 6/41/4 4/42/4 2/43/4 8/44/4
f 8/45/6 2/46/6 1/47/6 7/48/6
f 4/49/8 6/50/8 5/51/8 3/52/8
f 14/53/3 16/54/3 15/55/3 13/56/3
f 30/57/2 28/58/2 26/59/2 32/60/2
f 32/61/5 26/62/5 25/63/5 31/64/5
f 7/65/1 1/66/1 3/67/1 5/68/1
f 23/69/9 17/70/9 19/71/9 21/72/9
f 6/73/3 8/74/3 7/75/3 5/76/3
f 10/77/7 12/78/7 11/79/7 9/80/7
f 18/81/7 20/82/7 19/83/7 17/84/7
f 31/85/9 25/86/9 27/87/9 29/88/9
f 28/89/10 30/90/10 29/91/10 27/92/10
f 20/93/10 22/94/10 21/95/10 19/96/10
